<svg version="1.2" xmlns="http://www.w3.org/2000/svg" viewBox="0 0 364 364" width="364" height="364">
	<title>image</title>
	<style>
		.s0 { opacity: .99;fill: #000000 } 
	</style>
	<path id="Path 0" fill-rule="evenodd" class="s0" d="m185.5 36.5c7.7 0.2 18.1 1.1 23 2 4.9 0.9 13.3 3 18.5 4.7 5.2 1.7 14.4 5.5 20.5 8.4 6.1 3 15.1 8.3 20 11.9 4.9 3.5 13.7 11.2 19.5 17.2 5.8 5.9 13.1 14.6 16.2 19.3 3.1 4.7 7.7 12.5 10.2 17.5 2.4 5 6 13.7 7.9 19.5 1.9 5.8 4.3 15 5.3 20.5 1.7 9.1 1.9 15.9 1.9 74.5 0 58.8-0.2 65-1.7 69.8-1 2.8-3.3 7.3-5.1 10-1.9 2.6-5.7 6.6-8.5 9-3.5 2.8-7.4 4.9-11.9 6.2-3.8 1.1-8.8 2-11.3 2-2.5 0-7.4-0.8-11-1.9-3.6-1.1-8.7-3.6-11.5-5.7-2.7-2-6.6-5.6-12-12.2l-8.5 4.3c-4.7 2.4-13.2 5.9-19 7.8-5.8 1.9-15 4.3-20.5 5.3-7 1.3-14.7 1.9-25.5 1.8-10.1 0-18.7-0.6-24.5-1.7-4.9-0.9-13.9-3.2-20-5.2-6.1-1.9-15.6-5.9-21.3-8.8-5.6-2.8-14.1-8-19-11.4-4.8-3.4-13.4-11-19.2-17-5.8-5.9-13.3-14.9-16.6-19.8-3.3-4.9-8.1-13.3-10.6-18.5-2.5-5.2-5.9-13.8-7.6-19-1.7-5.2-3.8-13.6-4.7-18.5-0.9-4.9-1.9-14.8-2.2-22-0.4-10.4-0.1-15.5 1.6-25.7 1.2-7.1 3.5-17.2 5.2-22.5 1.7-5.4 5.1-13.8 7.4-18.8 2.4-4.9 7.1-13.3 10.6-18.5 4-6 10.7-14 18.3-21.6 8.5-8.5 15.1-14.1 22.1-18.7 5.5-3.6 13.8-8.3 18.5-10.5 4.7-2.2 12.8-5.3 18-7 5.2-1.7 13.8-3.8 19-4.6 5.2-0.9 10.6-1.8 12-2 1.4-0.3 8.8-0.3 16.5-0.1zm-23.5 81c-3 0.9-8.7 3.4-12.5 5.3-4.8 2.5-9.5 6.1-15.1 11.7-6 5.9-9 10-12.1 16-2.2 4.4-4.8 10.9-5.8 14.5-1.4 4.7-1.9 9.8-1.8 18 0 9.4 0.5 12.9 2.5 19 1.3 4.1 4.2 10.7 6.3 14.5 2.2 4 6.9 10 11 14 3.8 3.9 9.9 8.7 13.5 10.8 3.6 2.1 10.1 4.9 14.5 6.3 6.8 2.2 9.9 2.7 20 2.7 10.9 0 12.8-0.3 21-3.1 4.9-1.8 11.5-4.7 14.5-6.4 3-1.8 8.9-6.7 13-10.8 5.7-5.7 8.5-9.5 11.7-16 2.3-4.7 5-11.4 5.9-15 1.2-4.4 1.7-10.1 1.7-17.5-0.1-8.7-0.6-12.5-2.5-18.5-1.3-4.1-4-10.4-6-14-2-3.6-6.1-9.2-9-12.4-2.9-3.3-7.8-7.6-10.8-9.6-3-2.1-7.5-4.7-10-6-2.5-1.3-7.4-3.1-11-4.1-3.6-1.1-10.3-2.1-15-2.3-4.7-0.3-10.7-0.1-13.5 0.3-2.7 0.4-7.5 1.6-10.5 2.6z"/>
</svg>