<?xml version="1.0" encoding="UTF-8"?>
<svg id="Layer_1" data-name="Layer 1" xmlns="http://www.w3.org/2000/svg" viewBox="0 0 364 364">
  <path d="M337.1,0H26.5C12,0,.2,11.7,0,26.2v311.6c.2,14.5,12,26.2,26.5,26.2h310.8c14.6,0,26.4-11.7,26.6-26.2h0V26.2c-.2-14.5-12.1-26.2-26.6-26.2h-.4,0ZM108,310.2h-54.1v-173.7h54.1v173.7ZM80.9,112.7c-17.3,0-31.3-14-31.3-31.3s14-31.3,31.3-31.3,31.3,14,31.3,31.3h0c0,17.3-14,31.3-31.3,31.3h0,0ZM310.1,310.2h-53.9v-84.5c0-20.1-.4-46.1-28.1-46.1s-32.4,21.9-32.4,44.6v86h-53.9v-173.7h51.8v23.7h.7c10-16.9,28.2-28.1,49-28.1s1.5,0,2.2,0h-.1c54.6,0,64.7,35.9,64.7,82.7v95.3h0Z"/>
</svg>